<svg width="119" height="115" viewBox="0 0 119 115" fill="none" xmlns="http://www.w3.org/2000/svg">
<g clip-path="url(#clip0_37_2)">
<path d="M14.875 94.0298L15.0197 104.756C15.0198 106.353 16.5488 107.805 18.2264 107.806L101.073 107.813C102.75 107.812 104.125 106.36 104.125 104.763V94.0298C73.0967 98.7881 47.2155 96.8955 14.875 94.0298V94.0298Z" fill="#8C8C8C"/>
<path d="M17.4789 7.19707C16.0099 7.46296 14.8496 8.82102 14.8757 10.2417V101.584C14.8757 103.179 16.4021 104.629 18.0797 104.629L100.926 104.628C102.604 104.628 104.125 103.185 104.125 101.591L104.13 30.9909C85.6549 21.2518 86.0179 16.3915 78.098 7.20242C77.7782 7.08827 78.4401 7.21493 78.098 7.20242L18.0781 7.19546C17.8785 7.17737 17.677 7.17737 17.4774 7.19546L17.4789 7.19707Z" fill="#AAAAAA"/>
<path d="M78.098 7.20242C78.098 30.7544 78.0593 30.0149 80.7972 30.7043C82.8805 31.2288 104.13 30.9909 104.13 30.9909C95.7995 23.4033 86.7753 15.1319 78.098 7.20242L78.098 7.20242Z" fill="#8C8C8C"/>
<rect x="72" y="51" width="47" height="24" rx="5" fill="#8B8B8B"/>
<path d="M85.246 69C85.0407 69 84.868 68.93 84.728 68.79C84.588 68.65 84.518 68.4773 84.518 68.272V58.794C84.518 58.5793 84.588 58.4067 84.728 58.276C84.868 58.136 85.0407 58.066 85.246 58.066H91.574C91.7887 58.066 91.9613 58.1313 92.092 58.262C92.2227 58.3833 92.288 58.5467 92.288 58.752C92.288 58.948 92.2227 59.1067 92.092 59.228C91.9613 59.3493 91.7887 59.41 91.574 59.41H85.974V62.812H89.992C90.2067 62.812 90.3793 62.8773 90.51 63.008C90.6407 63.1293 90.706 63.288 90.706 63.484C90.706 63.68 90.6407 63.8433 90.51 63.974C90.3793 64.0953 90.2067 64.156 89.992 64.156H85.974V68.272C85.974 68.4773 85.904 68.65 85.764 68.79C85.624 68.93 85.4513 69 85.246 69ZM94.864 69C94.6587 69 94.486 68.9347 94.346 68.804C94.2153 68.664 94.15 68.4913 94.15 68.286V62.056C94.15 61.8413 94.2153 61.6687 94.346 61.538C94.486 61.4073 94.6587 61.342 94.864 61.342C95.0787 61.342 95.2513 61.4073 95.382 61.538C95.5127 61.6687 95.578 61.8413 95.578 62.056V68.286C95.578 68.4913 95.5127 68.664 95.382 68.804C95.2513 68.9347 95.0787 69 94.864 69ZM94.864 60.096C94.612 60.096 94.3927 60.0073 94.206 59.83C94.0287 59.6433 93.94 59.424 93.94 59.172C93.94 58.92 94.0287 58.7053 94.206 58.528C94.3927 58.3413 94.612 58.248 94.864 58.248C95.116 58.248 95.3307 58.3413 95.508 58.528C95.6947 58.7053 95.788 58.92 95.788 59.172C95.788 59.424 95.6947 59.6433 95.508 59.83C95.3307 60.0073 95.116 60.096 94.864 60.096ZM100.055 69C99.6439 69 99.2799 68.888 98.9626 68.664C98.6453 68.44 98.3979 68.1367 98.2206 67.754C98.0433 67.362 97.9546 66.914 97.9546 66.41V58.766C97.9546 58.5607 98.0199 58.3927 98.1506 58.262C98.2813 58.1313 98.4493 58.066 98.6546 58.066C98.8599 58.066 99.0279 58.1313 99.1586 58.262C99.2893 58.3927 99.3546 58.5607 99.3546 58.766V66.41C99.3546 66.7553 99.4199 67.04 99.5506 67.264C99.6813 67.488 99.8493 67.6 100.055 67.6H100.405C100.591 67.6 100.741 67.6653 100.853 67.796C100.974 67.9267 101.035 68.0947 101.035 68.3C101.035 68.5053 100.946 68.6733 100.769 68.804C100.591 68.9347 100.363 69 100.083 69H100.055ZM105.606 69.056C104.831 69.056 104.141 68.8927 103.534 68.566C102.937 68.23 102.465 67.7727 102.12 67.194C101.784 66.606 101.616 65.934 101.616 65.178C101.616 64.4127 101.775 63.7407 102.092 63.162C102.419 62.574 102.867 62.1167 103.436 61.79C104.005 61.454 104.659 61.286 105.396 61.286C106.124 61.286 106.749 61.4493 107.272 61.776C107.795 62.0933 108.191 62.5367 108.462 63.106C108.742 63.666 108.882 64.3147 108.882 65.052C108.882 65.2293 108.821 65.3787 108.7 65.5C108.579 65.612 108.425 65.668 108.238 65.668H102.918C103.021 66.312 103.315 66.8393 103.8 67.25C104.295 67.6513 104.897 67.852 105.606 67.852C105.895 67.852 106.189 67.8007 106.488 67.698C106.796 67.586 107.043 67.46 107.23 67.32C107.37 67.2173 107.519 67.166 107.678 67.166C107.846 67.1567 107.991 67.2033 108.112 67.306C108.271 67.446 108.355 67.6 108.364 67.768C108.373 67.936 108.299 68.0807 108.14 68.202C107.823 68.454 107.426 68.6593 106.95 68.818C106.483 68.9767 106.035 69.056 105.606 69.056ZM105.396 62.49C104.705 62.49 104.15 62.6813 103.73 63.064C103.31 63.4467 103.044 63.9413 102.932 64.548H107.594C107.51 63.9507 107.281 63.4607 106.908 63.078C106.535 62.686 106.031 62.49 105.396 62.49Z" fill="white"/>
</g>
<defs>
<clipPath id="clip0_37_2">
<rect width="119" height="115" fill="white"/>
</clipPath>
</defs>
</svg>
